<svg id="Composant_5_1" data-name="Composant 5 – 1" xmlns="http://www.w3.org/2000/svg" width="183.835" height="183.834" viewBox="0 0 183.835 183.834">
  <g id="Groupe_12" data-name="Groupe 12" transform="translate(-1388.93 -302.489) rotate(-21)">
    <path id="Tracé_49" data-name="Tracé 49" d="M748.234,79.81l-1.255-1.957a12.465,12.465,0,0,1,0-13.422l1.255-1.957a12.875,12.875,0,0,0-4.927-18.383l-2.066-1.068A12.476,12.476,0,0,1,734.531,31.4l.109-2.323a12.873,12.873,0,0,0-12.863-13.471q-.3,0-.593.015l-2.323.109c-.193.01-.381.015-.568.015A12.475,12.475,0,0,1,707.237,9.02L706.17,6.955a12.875,12.875,0,0,0-18.384-4.927L685.83,3.282a12.444,12.444,0,0,1-13.421,0l-1.957-1.255a12.868,12.868,0,0,0-18.378,4.927L651.005,9.02a12.488,12.488,0,0,1-11.06,6.726c-.188,0-.38-.005-.568-.015l-2.323-.109q-.3-.015-.593-.015A12.872,12.872,0,0,0,623.6,29.078l.109,2.323A12.458,12.458,0,0,1,617,43.024l-2.065,1.068A12.885,12.885,0,0,0,610,62.475l1.255,1.957a12.465,12.465,0,0,1,0,13.422L610,79.81a12.876,12.876,0,0,0,4.927,18.378L617,99.261a12.458,12.458,0,0,1,6.711,11.623l-.109,2.322a12.872,12.872,0,0,0,12.864,13.471q.3,0,.593-.015l2.323-.109c.193-.01.381-.015.568-.015a12.488,12.488,0,0,1,11.06,6.726l1.068,2.066a12.878,12.878,0,0,0,18.378,4.927L672.408,139a12.444,12.444,0,0,1,13.421,0l1.957,1.255a12.876,12.876,0,0,0,18.384-4.927l1.067-2.066a12.475,12.475,0,0,1,11.055-6.726c.188,0,.375.005.568.015l2.323.109q.3.015.593.015a12.873,12.873,0,0,0,12.863-13.471l-.109-2.322a12.476,12.476,0,0,1,6.711-11.623l2.066-1.072a12.866,12.866,0,0,0,4.927-18.378" transform="translate(562.027 827.755)" fill="#ef721b"/>
    <path id="Tracé_50" data-name="Tracé 50" d="M760.047,123.356c-1.507-1.665-3.257-3.395-5.08-5.2-1.058-1.048-2.14-2.12-3.232-3.232-2.753-2.767-3.983-4.858-3.865-6.582.1-1.552,1.359-3.232,3.948-5.223l2.135-1.922c8.974-8.292,10.037-18.117,3.029-27.6C749.9,63.185,740.226,57.8,727.352,57.127c-9.444-.232-14.771,3.869-16.9,13.328-7.2,33.055-9.429,44-9.5,47.8l-.218-.049c-1.917,8.692-3.494,17.6-.025,22.608a8.415,8.415,0,0,0,5.97,3.543c2.323.42,4.971.653,6.963-.741,2.639-1.838,3.291-5.5,4.591-12.8.341-1.913.731-4.092,1.2-6.494.692-2.985,1.729-7.5,2.619-7.951l.563-.227c1.265-.519,2.184-.909,4.695,1.67l28.153,28.672c2.229,2.224,6.157,6.137,10.739,6.137a9.044,9.044,0,0,0,5.96-2.426l.064-.059c2.135-2,3.188-4.057,3.212-6.286.069-5.263-5.446-10.7-15.389-20.5m-19.2-38.13c0,2.52-7.932,6.77-11.633,6.77-1.176,0-1.512-.43-1.636-.588-.38-.484-1.126-2.135.089-6.973.845-3.242,1.912-6.711,3.662-6.829,3.509,0,9.518,5.619,9.518,7.62" transform="translate(507.147 793.188)" fill="#fff"/>
  </g>
</svg>
