<?xml version="1.0" encoding="UTF-8"?><svg id="Calque_1" xmlns="http://www.w3.org/2000/svg" viewBox="0 0 119.5 171.98"><defs><style>.cls-1{fill:#fff;}.cls-2{fill:#61217d;}.cls-3{opacity:.15;}</style></defs><g><path class="cls-3" d="m100.75,167.31c0,2.58-18.29,4.67-40.85,4.67s-40.85-2.09-40.85-4.67,18.29-4.67,40.85-4.67,40.85,2.09,40.85,4.67Z"/><path class="cls-2" d="m59.9,0c-.05,0-.1,0-.15,0C26.75,0,0,26.75,0,59.75c0,26.1,16.74,48.28,40.06,56.42,9.25,26.65,19.84,47.93,19.84,47.93,0,0,10.26-21.25,19.35-47.87,23.42-8.09,40.25-30.31,40.25-56.48C119.5,26.8,92.83.09,59.9,0Z"/></g><g id="Groupe_270"><path id="Tracé_49" class="cls-1" d="m97.54,52.22l-1.02-.75c-2.13-1.57-3.15-4.23-2.62-6.82l.26-1.24c.78-3.79-1.66-7.49-5.45-8.28-.21-.04-.43-.08-.64-.1l-1.26-.14c-2.62-.3-4.84-2.09-5.68-4.6l-.4-1.2c-1.22-3.67-5.18-5.66-8.85-4.44-.1.03-.21.07-.31.11-.1.04-.2.08-.3.12l-1.16.51c-.1.04-.19.08-.29.12-2.36.9-5.03.42-6.93-1.26l-.95-.84c-2.89-2.57-7.32-2.31-9.89.58-.14.16-.28.33-.41.5l-.75,1.02c-1.57,2.13-4.23,3.15-6.82,2.62l-1.24-.26c-3.79-.78-7.49,1.65-8.27,5.44-.04.21-.08.43-.1.65l-.14,1.26c-.29,2.51-1.95,4.66-4.31,5.57-.1.04-.19.07-.29.1l-1.2.4c-.1.03-.2.07-.3.11-3.61,1.39-5.41,5.44-4.03,9.05.04.1.08.2.12.3l.51,1.16c1.06,2.42.61,5.24-1.14,7.21l-.84.95c-2.57,2.89-2.31,7.33.59,9.9.16.14.32.28.5.4l1.02.75c2.13,1.57,3.15,4.23,2.62,6.82l-.26,1.24c-.78,3.79,1.66,7.49,5.45,8.27.21.04.42.08.64.1l1.26.14c2.63.29,4.84,2.09,5.68,4.6l.4,1.2c1.22,3.67,5.18,5.66,8.85,4.45.1-.03.21-.07.31-.11.1-.04.2-.08.3-.12l1.16-.51c.1-.04.19-.08.29-.12,2.36-.9,5.03-.42,6.93,1.26l.95.84c2.89,2.57,7.32,2.31,9.89-.58.14-.16.28-.33.4-.5l.75-1.02c1.57-2.13,4.23-3.15,6.82-2.62l1.24.26c3.79.78,7.49-1.65,8.28-5.44.04-.21.08-.43.1-.64l.14-1.26c.28-2.51,1.94-4.66,4.3-5.57.1-.04.19-.07.29-.1l1.2-.4c.1-.03.2-.07.3-.11,3.61-1.39,5.41-5.44,4.03-9.05-.04-.1-.08-.2-.12-.3l-.51-1.16c-1.05-2.42-.61-5.24,1.14-7.21l.84-.95c2.57-2.89,2.32-7.31-.57-9.88-.16-.15-.33-.28-.51-.41"/><path id="Tracé_50" class="cls-2" d="m77.42,65.18c-1.09-.55-2.32-1.09-3.59-1.65-.74-.33-1.5-.66-2.27-1.01-1.94-.87-2.97-1.69-3.25-2.59-.25-.81.06-1.91.99-3.42l.71-1.39c2.94-5.96,1.56-11.16-3.84-14.61-5.63-3.91-11.59-4.75-18.26-2.59-4.84,1.72-6.75,4.85-5.98,10.06,2.79,18.19,3.79,24.19,4.49,26.13l-.12.02c.72,4.79,1.66,9.62,4.39,11.49,1.09.74,2.45.97,3.72.64,1.26-.24,2.65-.64,3.39-1.73.98-1.45.6-3.44-.16-7.4-.2-1.04-.43-2.22-.66-3.53-.23-1.65-.58-4.15-.22-4.55l.24-.23c.54-.51.93-.89,2.71-.07l19.89,9.07c1.57.7,4.32,1.92,6.65,1.02,1.12-.46,2.03-1.31,2.55-2.39l.02-.04c.69-1.43.83-2.68.41-3.82-.99-2.69-4.85-4.37-11.81-7.41m-17.19-15.62c.49,1.28-2.71,4.99-4.59,5.71-.6.23-.85.08-.94.02-.29-.17-.99-.87-1.31-3.56-.2-1.81-.34-3.78.53-4.18,1.78-.68,5.93,1,6.32,2.01"/></g></svg>