<svg id="Calque_1" xmlns="http://www.w3.org/2000/svg" viewBox="0 0 566.93 566.93"><defs><clipPath id="clippath"><path style="fill:none" d="M0 0h566.93v566.93H0z"/></clipPath><style>.cls-3{fill:#fff}.cls-4{fill:#1e1e1c}.cls-5{fill:#55267a}</style></defs><g style="clip-path:url(#clippath)"><path class="cls-5" d="m443.71 255.66-4.14-3.68c-8.62-7.64-12.01-19.72-8.64-30.74l1.61-5.3c2.51-8.22 1.42-17.17-2.96-24.57a30.76 30.76 0 0 0-20.16-14.36l-5.42-1.12c-11.3-2.33-20.28-11.08-22.88-22.31l-1.25-5.39A30.722 30.722 0 0 0 365 128.38c-7.48-4.2-16.44-5.03-24.63-2.35l-5.26 1.74c-10.91 3.67-23.09.54-30.95-7.88l-3.78-4.05a30.698 30.698 0 0 0-22.39-9.71h-.38c-8.6.11-16.81 3.85-22.52 10.28l-3.67 4.14c-7.67 8.62-19.72 12-30.75 8.64l-5.29-1.61c-8.24-2.52-17.19-1.41-24.58 2.96a30.703 30.703 0 0 0-14.35 20.16l-1.12 5.42c-2.33 11.29-11.08 20.27-22.31 22.86l-5.4 1.25c-8.37 1.95-15.59 7.36-19.79 14.87a30.68 30.68 0 0 0-2.36 24.64l1.75 5.24c3.63 10.95.54 23.1-7.89 30.97l-4.03 3.77a30.737 30.737 0 0 0-9.73 22.77c.12 8.59 3.86 16.79 10.29 22.51l4.13 3.68c8.61 7.65 12.01 19.71 8.66 30.74l-1.62 5.29a30.66 30.66 0 0 0 23.14 38.94l5.41 1.12c11.29 2.32 20.28 11.07 22.88 22.31l1.25 5.39c1.95 8.38 7.37 15.61 14.88 19.8 7.52 4.21 16.48 5.03 24.63 2.35l5.25-1.74c10.95-3.62 23.11-.54 30.97 7.88l3.77 4.04a30.659 30.659 0 0 0 22.38 9.71h.36c8.61-.11 16.82-3.85 22.53-10.28l3.67-4.14c7.68-8.61 19.75-12 30.76-8.64l5.29 1.61c8.23 2.52 17.18 1.43 24.58-2.96a30.694 30.694 0 0 0 14.36-20.16l1.12-5.42c2.32-11.29 11.07-20.26 22.31-22.86l5.39-1.26a30.706 30.706 0 0 0 19.79-14.84c4.21-7.5 5.07-16.49 2.36-24.65l-1.74-5.26c-3.65-10.93-.55-23.08 7.88-30.96l4.05-3.77a30.681 30.681 0 0 0 9.71-22.77 30.73 30.73 0 0 0-10.28-22.51"/><path class="cls-5" d="M301.6 504.09c-3.76-.04-6.77-3.12-6.73-6.89l.74-64.76c.04-3.76 3.13-6.77 6.89-6.73 3.76.04 6.77 3.12 6.73 6.88l-.74 64.76c-.04 3.76-3.12 6.77-6.89 6.73"/><path class="cls-5" d="M328.71 473.08c-18.3-.21-32.76 10.55-32.92 24.48a6.803 6.803 0 0 0 6.73 6.88l51.65.59c3.76.04 6.84-2.97 6.89-6.73.16-13.94-14.05-25.02-32.35-25.23M262.25 504.09c3.76-.04 6.77-3.12 6.73-6.89l-.74-64.76a6.803 6.803 0 0 0-6.88-6.73 6.803 6.803 0 0 0-6.73 6.88l.74 64.76a6.803 6.803 0 0 0 6.88 6.73"/><path class="cls-5" d="M235.14 473.08c18.3-.21 32.76 10.55 32.92 24.48a6.803 6.803 0 0 1-6.73 6.88l-51.65.59a6.803 6.803 0 0 1-6.88-6.73c-.16-13.94 14.05-25.02 32.35-25.23"/><path class="cls-3" d="M175.05 228.14c-6.83 31.03 7.21 60.49 31.34 65.8 24.14 5.31 49.24-15.54 56.07-46.57 6.83-31.03-7.21-60.49-31.34-65.8-24.14-5.31-49.24 15.54-56.07 46.57"/><path class="cls-4" d="M176.08 227.68c-4.27 19.4 4.51 37.82 19.6 41.14 15.09 3.32 30.78-9.71 35.05-29.11 4.27-19.4-4.5-37.82-19.6-41.14-15.09-3.32-30.78 9.71-35.05 29.11"/><path class="cls-3" d="M209.2 216.37c0-5.11-4.14-9.25-9.25-9.25s-9.25 4.14-9.25 9.25 4.14 9.25 9.25 9.25 9.25-4.14 9.25-9.25M246.57 240.44c-7.27 33.05 7.68 64.43 33.38 70.08 25.71 5.66 52.44-16.55 59.71-49.6 7.27-33.05-7.67-64.43-33.38-70.08-25.71-5.66-52.44 16.55-59.71 49.6"/><path class="cls-4" d="M247.67 239.95c-4.55 20.66 4.8 40.28 20.87 43.81 16.07 3.54 32.79-10.35 37.33-31.01 4.54-20.66-4.8-40.28-20.87-43.81-16.07-3.54-32.79 10.35-37.33 31.01"/><path class="cls-3" d="M282.94 227.9c0-5.44-4.41-9.85-9.85-9.85s-9.85 4.41-9.85 9.85 4.41 9.85 9.85 9.85 9.85-4.41 9.85-9.85M254.67 318.53v16.16c0 10-8.18 18.18-18.18 18.18s-18.18-8.18-18.18-18.18v-9.39l36.37-6.78Z"/><path class="cls-3" d="M236.49 356.2c-11.86 0-21.5-9.65-21.5-21.5v-9.39c0-1.6 1.14-2.97 2.71-3.26l36.37-6.78a3.321 3.321 0 0 1 3.93 3.26v16.16c0 11.86-9.65 21.5-21.5 21.5m-14.86-28.13v6.63c0 8.2 6.67 14.87 14.86 14.87s14.87-6.67 14.87-14.87v-12.17l-29.73 5.54Z"/><path class="cls-5" d="m504.61 319.9-57.77-46.84a13.37 13.37 0 0 0-9.86-2.93c-3.57.37-6.78 2.11-9.04 4.9-4.66 5.75-3.78 14.23 1.98 18.89l39.3 31.87-51.02 18.46c-6.96 2.52-10.58 10.23-8.07 17.2 1.92 5.3 6.99 8.87 12.63 8.87 1.57 0 3.11-.27 4.57-.8l73.39-26.55a13.44 13.44 0 0 0 8.68-10.41c.8-4.76-1.04-9.61-4.79-12.66M151.45 266.16l-59-36.44 23.95-58.16c2.82-6.85-.47-14.71-7.31-17.53a13.325 13.325 0 0 0-10.28.02 13.326 13.326 0 0 0-7.25 7.29l-28.3 68.71a13.384 13.384 0 0 0 5.37 16.54l68.71 42.44c2.12 1.31 4.56 2 7.06 2 4.69 0 8.96-2.38 11.44-6.38 3.88-6.3 1.92-14.59-4.38-18.49"/><path class="cls-4" d="m160.48 65.38-9.33 21.35-10.84-4.74-8.45-3.69 9.33-21.35c-9.74.13-18.98 5.82-23.13 15.32-4.12 9.43-2.08 19.98 4.32 27.21l-24.03 55c-.27.63-.44 1.27-.55 1.91-.53 3.41 1.25 6.88 4.56 8.32l1.51.66 3.9 1.71c3.31 1.45 7.07.4 9.2-2.31.41-.51.76-1.08 1.03-1.7l24.03-55c9.65-.21 18.78-5.88 22.9-15.31 4.15-9.51 2.05-20.15-4.47-27.38"/><path class="cls-5" d="M86.83 166.6c0-9.68 7.85-17.53 17.53-17.53s17.53 7.85 17.53 17.53-7.85 17.53-17.53 17.53-17.53-7.85-17.53-17.53"/></g></svg>