<svg xmlns="http://www.w3.org/2000/svg" xmlns:xlink="http://www.w3.org/1999/xlink" xml:space="preserve" viewBox="0 0 566.9 566.9"><defs><path id="a" d="M0 0h566.9v566.9H0z"/></defs><clipPath id="b"><use xlink:href="#a" overflow="visible"/></clipPath><path fill="#55267A" d="m443.7 255.7-4.1-3.7c-8.6-7.6-12-19.7-8.6-30.7l1.6-5.3c2.5-8.2 1.4-17.2-3-24.6-4.4-7.4-11.7-12.6-20.2-14.4l-5.4-1.1c-11.3-2.3-20.3-11.1-22.9-22.3l-1.2-5.4c-1.9-8.4-7.4-15.6-14.9-19.8-7.5-4.2-16.4-5-24.6-2.4l-5.3 1.7c-10.9 3.7-23.1.5-31-7.9l-3.8-4c-5.8-6.2-13.9-9.7-22.4-9.7h-.4c-8.6.1-16.8 3.8-22.5 10.3l-3.7 4.1c-7.7 8.6-19.7 12-30.8 8.6l-5.3-1.6c-8.2-2.5-17.2-1.4-24.6 3-7.4 4.4-12.6 11.7-14.3 20.2l-1.1 5.4c-2.3 11.3-11.1 20.3-22.3 22.9l-5.4 1.2c-8.4 2-15.6 7.4-19.8 14.9-4.2 7.5-5.1 16.5-2.4 24.6l1.8 5.2c3.6 11 .5 23.1-7.9 31l-4 3.8c-6.3 5.9-9.8 14.2-9.7 22.8.1 8.6 3.9 16.8 10.3 22.5l4.1 3.7c8.6 7.6 12 19.7 8.7 30.7l-1.6 5.3c-2.5 8.2-1.4 17.2 3 24.6 4.4 7.4 11.7 12.6 20.2 14.4l5.4 1.1c11.3 2.3 20.3 11.1 22.9 22.3l1.2 5.4c2 8.4 7.4 15.6 14.9 19.8 7.5 4.2 16.5 5 24.6 2.4l5.2-1.7c10.9-3.6 23.1-.5 31 7.9l3.8 4c5.8 6.2 13.9 9.7 22.4 9.7h.4c8.6-.1 16.8-3.8 22.5-10.3l3.7-4.1c7.7-8.6 19.7-12 30.8-8.6l5.3 1.6c8.2 2.5 17.2 1.4 24.6-3 7.4-4.4 12.6-11.7 14.4-20.2l1.1-5.4c2.3-11.3 11.1-20.3 22.3-22.9l5.4-1.3c8.4-1.9 15.6-7.4 19.8-14.8 4.2-7.5 5.1-16.5 2.4-24.7l-1.7-5.3c-3.6-10.9-.6-23.1 7.9-31l4-3.8c6.3-5.9 9.8-14.2 9.7-22.8-.3-8.4-4.1-16.6-10.5-22.3" clip-path="url(#b)"/><path fill="#55267A" d="M301.6 504.1c-3.8 0-6.8-3.1-6.7-6.9l.7-64.8c0-3.8 3.1-6.8 6.9-6.7 3.8 0 6.8 3.1 6.7 6.9l-.7 64.8c-.1 3.7-3.1 6.7-6.9 6.7" clip-path="url(#b)"/><path fill="#55267A" d="M328.7 473.1c-18.3-.2-32.8 10.5-32.9 24.5 0 3.8 3 6.8 6.7 6.9l51.7.6c3.8 0 6.8-3 6.9-6.7.1-14-14.1-25.1-32.4-25.3M262.3 504.1c3.8 0 6.8-3.1 6.7-6.9l-.7-64.8c0-3.8-3.1-6.8-6.9-6.7-3.8 0-6.8 3.1-6.7 6.9l.7 64.8c0 3.7 3.1 6.7 6.9 6.7" clip-path="url(#b)"/><path fill="#55267A" d="M235.1 473.1c18.3-.2 32.8 10.5 32.9 24.5 0 3.8-3 6.8-6.7 6.9l-51.7.6c-3.8 0-6.8-3-6.9-6.7-.1-14 14.1-25.1 32.4-25.3" clip-path="url(#b)"/><path fill="#FFF" d="M175 228.1c-6.8 31 7.2 60.5 31.3 65.8 24.1 5.3 49.2-15.5 56.1-46.6 6.8-31-7.2-60.5-31.3-65.8-24.1-5.2-49.2 15.6-56.1 46.6" clip-path="url(#b)"/><path fill="#1E1E1C" d="M176.1 227.7c-4.3 19.4 4.5 37.8 19.6 41.1 15.1 3.3 30.8-9.7 35-29.1 4.3-19.4-4.5-37.8-19.6-41.1-15.1-3.4-30.8 9.7-35 29.1" clip-path="url(#b)"/><path fill="#FFF" d="M209.2 216.4c0-5.1-4.1-9.2-9.2-9.2s-9.2 4.1-9.2 9.2 4.1 9.2 9.2 9.2 9.2-4.1 9.2-9.2M246.6 240.4c-7.3 33 7.7 64.4 33.4 70.1 25.7 5.7 52.4-16.6 59.7-49.6 7.3-33-7.7-64.4-33.4-70.1-25.7-5.6-52.5 16.6-59.7 49.6" clip-path="url(#b)"/><path fill="#1E1E1C" d="M247.7 239.9c-4.5 20.7 4.8 40.3 20.9 43.8 16.1 3.5 32.8-10.3 37.3-31s-4.8-40.3-20.9-43.8c-16.1-3.5-32.8 10.4-37.3 31" clip-path="url(#b)"/><path fill="#FFF" d="M282.9 227.9c0-5.4-4.4-9.8-9.8-9.8s-9.8 4.4-9.8 9.8 4.4 9.8 9.8 9.8 9.8-4.4 9.8-9.8M254.7 318.5v16.2c0 10-8.2 18.2-18.2 18.2s-18.2-8.2-18.2-18.2v-9.4l36.4-6.8z" clip-path="url(#b)"/><path fill="#FFF" d="M236.5 356.2c-11.9 0-21.5-9.6-21.5-21.5v-9.4c0-1.6 1.1-3 2.7-3.3l36.4-6.8c1-.2 2 .1 2.7.7.8.6 1.2 1.6 1.2 2.6v16.2c0 11.9-9.7 21.5-21.5 21.5m-14.9-28.1v6.6c0 8.2 6.7 14.9 14.9 14.9s14.9-6.7 14.9-14.9v-12.2l-29.8 5.6z" clip-path="url(#b)"/><path fill="#55267A" d="m504.6 319.9-57.8-46.8c-2.8-2.3-6.3-3.3-9.9-2.9-3.6.4-6.8 2.1-9 4.9-4.7 5.8-3.8 14.2 2 18.9l39.3 31.9-51 18.5c-7 2.5-10.6 10.2-8.1 17.2 1.9 5.3 7 8.9 12.6 8.9 1.6 0 3.1-.3 4.6-.8l73.4-26.5c4.5-1.6 7.9-5.6 8.7-10.4.8-5-1-9.9-4.8-12.9M151.5 266.2l-59-36.4 23.9-58.2c2.8-6.8-.5-14.7-7.3-17.5-3.3-1.4-7-1.4-10.3 0-3.3 1.4-5.9 4-7.3 7.3L63.3 230c-2.5 6.1-.3 13.1 5.4 16.5l68.7 42.4c2.1 1.3 4.6 2 7.1 2 4.7 0 9-2.4 11.4-6.4 3.8-6.2 1.9-14.4-4.4-18.3" clip-path="url(#b)"/><path fill="#1E1E1C" d="m160.5 65.4-9.3 21.4-10.9-4.8-8.4-3.7 9.3-21.4c-9.7.1-19 5.8-23.1 15.3-4.1 9.4-2.1 20 4.3 27.2l-24 55c-.3.6-.4 1.3-.5 1.9-.5 3.4 1.3 6.9 4.6 8.3l1.5.7 3.9 1.7c3.3 1.4 7.1.4 9.2-2.3.4-.5.8-1.1 1-1.7l24-55c9.7-.2 18.8-5.9 22.9-15.3 4.1-9.5 2-20.1-4.5-27.3" clip-path="url(#b)"/><path fill="#55267A" d="M86.8 166.6c0-9.7 7.8-17.5 17.5-17.5s17.5 7.8 17.5 17.5-7.8 17.5-17.5 17.5c-9.6 0-17.5-7.8-17.5-17.5" clip-path="url(#b)"/></svg>