<?xml version="1.0" encoding="utf-8"?>
<!-- Generator: Adobe Illustrator 27.2.0, SVG Export Plug-In . SVG Version: 6.00 Build 0)  -->
<svg version="1.1" id="Composant_6_1" xmlns="http://www.w3.org/2000/svg" xmlns:xlink="http://www.w3.org/1999/xlink" x="0px"
	 y="0px" viewBox="0 0 222.1 321.1" enable-background="new 0 0 222.1 321.1" xml:space="preserve">
<g enable-background="new    ">
	<path d="M59.3,76.5c-0.7-0.2-1.1-0.7-1.2-1.4c-0.1-0.7,0.1-1.7,0.5-3.1c0.5-1.9,1.2-3.8,1.9-5.7c0.4-1.3,0.4-2.3-0.1-3.2
		c-0.2-0.5-0.5-1.5-0.7-2.8c-0.2-1-0.8-3.3-1.9-7c-1.1-3.7-1.7-6-1.8-6.8c-0.1-0.6,0-1.2,0.3-1.6c0.3-0.5,0.6-0.8,1.1-0.9
		c1.2-0.3,2.1,0.1,2.6,1.3c0.3,0.5,1.1,3.3,2.4,8.3c0.4,1.5,0.9,2.3,1.4,2.4c0.3,0,0.6-0.1,0.8-0.4c0.2-0.3,0.4-0.8,0.8-1.7l3.3-7.5
		c0.7-1.3,1.3-2.2,1.8-2.7c0.6-0.6,1.3-0.6,2.1-0.2c1.3,0.6,1.4,1.9,0.5,3.8c-2.8,5.9-5.8,12.9-8.8,21.1c-0.3,0.9-0.7,2.2-1.3,4
		c-0.5,1.7-1,3-1.5,3.7C61,76.6,60.3,76.8,59.3,76.5z"/>
	<path d="M76.5,65.3c-2.1-0.2-3.2-1.3-3.2-3.4c0-1.3,0.3-3.2,0.8-5.8c0.3-1.2,0.8-3.2,1.6-5.9c0.8-2.7,1.3-4.5,1.6-5.2
		c0.5-1.3,1.1-2.3,1.8-2.8c0.7-0.5,1.5-0.8,2.7-0.7c1.2,0,2.2,0,2.9,0.1c0.7,0,1.6,0.1,2.5,0.3c0.9,0.1,1.6,0.4,2.1,0.7
		c0.5,0.3,0.7,0.8,0.8,1.4c0.2,1.2-0.5,1.9-2.1,2.1s-3.2,0.2-4.8-0.2c-1.1-0.1-1.8,0.3-2,1.2c-0.1,0.3-0.2,0.8-0.4,1.4
		c-0.2,0.6-0.3,1.1-0.4,1.3c-0.3,0.8,0,1.3,0.9,1.4c0.2,0,0.6,0.1,1.2,0.1c0.5,0,0.9,0,1.1,0.1c0.2,0,0.4,0.1,0.8,0.2
		c0.3,0.1,0.6,0.2,0.7,0.3c0.1,0.1,0.3,0.3,0.4,0.5c0.1,0.2,0.2,0.5,0.3,0.8c0,0.4-0.1,0.8-0.2,1.1c-0.1,0.3-0.3,0.5-0.5,0.7
		c-0.2,0.2-0.5,0.3-1,0.4c-0.4,0.1-0.8,0.2-1.1,0.2c-0.3,0-0.8,0-1.4,0.1c-0.6,0-1,0-1.4,0.1c-1,0-1.6,0.5-1.8,1.4
		c-0.1,0.4-0.3,1.1-0.4,2.2c-0.1,1,0.4,1.4,1.4,1.4c0.7,0,1.5-0.1,2.4-0.2c0.9-0.1,1.6-0.2,2-0.2c0.4,0,0.8,0.1,1.2,0.3
		c0.4,0.3,0.6,0.7,0.8,1.3c0.2,0.9-0.2,1.6-1.2,2.1c-0.4,0.2-1.7,0.4-3.9,0.7C78.4,65.2,77.1,65.3,76.5,65.3z"/>
	<path d="M102.8,66.7c-0.2,0-0.4-0.1-0.6-0.1c-0.2-0.1-0.3-0.1-0.4-0.3c-0.1-0.1-0.2-0.2-0.3-0.3c-0.1-0.1-0.1-0.2-0.2-0.5
		c-0.1-0.2-0.1-0.4-0.1-0.5c0-0.1,0-0.3-0.1-0.6c0-0.3,0-0.5,0-0.6c0-0.1,0-0.4,0-0.8c0-0.4,0-0.6,0-0.8c0.1-0.9-0.3-1.4-1.2-1.4
		l-3.7-0.2c-0.6,0-1.1,0.3-1.5,1c-1.6,2.5-2.6,4-2.9,4.3c-0.8,0.6-1.6,0.6-2.5,0c-1.2-0.7-1.2-2,0-3.7l4.8-8.1
		c1.1-1.9,2.7-4.1,4.6-6.6c2-2.5,3.5-4.1,4.4-4.6c0.9-0.5,1.8-0.6,2.6-0.3c0.8,0.4,1.3,1,1.4,2c0.2,1.1-0.1,4.5-0.7,10.2
		c-0.6,5.7-1.1,9.2-1.4,10.4c-0.2,0.5-0.4,0.9-0.8,1.2C103.8,66.6,103.3,66.7,102.8,66.7z M100.4,56.4c0.9,0,1.4-0.4,1.6-1.3
		c0.2-1.4,0.3-2.3,0.3-2.8s-0.1-0.7-0.4-0.8c-0.6-0.3-1.3,0.2-2.2,1.5c-0.9,1.3-1.2,2.2-0.9,2.7C98.9,56.3,99.4,56.4,100.4,56.4z"/>
	<path d="M121.5,65.6c-1.3-0.4-1.8-1.6-1.2-3.4l0.7-2c0.3-1,0.4-1.7,0.2-2c-0.2-0.3-0.8-0.5-1.8-0.5c-1.2-0.1-2-0.1-2.7-0.1
		c-0.9-0.1-1.5,0.3-1.8,1.3c-1.1,3.3-1.8,5.2-2,5.7c-0.5,0.9-1.3,1.2-2.4,0.8c-1-0.3-1.4-1.1-1.3-2.1c0.1-0.8,1.1-4.2,3.1-10
		c2-5.8,3.3-9,3.8-9.6c0.7-0.7,1.4-0.9,2.4-0.6c0.9,0.4,1.3,1.1,1.2,2.1c0,0.5-0.7,2.6-2.1,6.3c-0.4,1.2,0,1.9,1.3,1.9h3.2
		c0.2,0,0.3,0,0.4,0c0.1,0,0.2,0,0.3-0.1c0.1,0,0.2-0.1,0.3-0.1c0.1-0.1,0.2-0.1,0.2-0.1c0.1,0,0.1-0.1,0.2-0.3
		c0.1-0.1,0.1-0.2,0.1-0.3c0-0.1,0.1-0.2,0.1-0.3c0.1-0.2,0.1-0.3,0.1-0.4c0-0.1,0.1-0.2,0.2-0.5c0.1-0.2,0.1-0.4,0.2-0.5
		c1.6-4.2,2.6-6.6,2.9-7.2c0.7-1.1,1.6-1.4,2.7-1c1.3,0.6,1.6,1.8,0.9,3.5l-3.8,10.3c-0.3,0.9-0.7,2.2-1.3,3.7
		c-0.8,2.5-1.5,4.1-1.9,4.8C123.1,65.6,122.4,65.8,121.5,65.6z"/>
	<path d="M148.6,66.1c-0.4,0.4-0.9,0.6-1.5,0.6c-0.6,0-1.1-0.2-1.5-0.6c-0.4-0.4-0.6-0.9-0.5-1.5c0-0.5,0.3-1,0.7-1.4
		c0.4-0.4,0.9-0.6,1.5-0.5c0.5,0,1,0.3,1.4,0.6c0.4,0.4,0.6,0.8,0.6,1.3C149.2,65.2,149,65.7,148.6,66.1z M148.2,58.1
		c-1.1-0.5-1.5-1.3-1.2-2.4c0.1-0.4,0.7-2.4,1.8-6c1.1-3.6,1.8-6.2,2.2-7.8c0.4-1.4,1.2-2,2.4-1.8c0.6,0.1,1.1,0.4,1.5,0.9
		c0.4,0.5,0.5,1.1,0.3,1.8c-0.4,1.3-0.9,3.1-1.5,5.4c-0.6,2.3-1.1,4.3-1.6,5.9c-0.5,1.6-0.9,2.7-1.2,3.3
		C150.2,58.2,149.3,58.4,148.2,58.1z"/>
</g>
<g id="Groupe_300" transform="translate(0 89.997)">
	<ellipse id="Ellipse_1" fill="#C2B4D5" cx="107.5" cy="223.1" rx="72.1" ry="8"/>
	<g id="Groupe_294">
		<g>
			<defs>
				<rect id="SVGID_1_" y="0" width="222.1" height="222.5"/>
			</defs>
			<clipPath id="SVGID_00000023971217065818334250000011783447910219563952_">
				<use xlink:href="#SVGID_1_"  overflow="visible"/>
			</clipPath>
			<g id="Groupe_10" clip-path="url(#SVGID_00000023971217065818334250000011783447910219563952_)">
				<path id="Tracé_32" fill="#3B1C68" d="M189.4,98.7l-2.1-1.8c-4.3-3.8-6-9.8-4.3-15.3l0.8-2.6c2.4-8-2.1-16.5-10.1-19
					c-0.4-0.1-0.9-0.3-1.4-0.3l-2.7-0.6c-5.6-1.2-10.1-5.5-11.4-11.1l-0.6-2.7c-1.9-8.2-10.1-13.3-18.3-11.4
					c-0.5,0.1-0.9,0.2-1.4,0.4l-2.6,0.9c-5.4,1.8-11.4,0.3-15.4-3.9l-1.9-2c-2.9-3.1-6.9-4.8-11.1-4.8h-0.2
					c-4.3,0.1-8.3,1.9-11.2,5.1l-1.8,2.1c-3.8,4.3-9.8,6-15.3,4.3L76,35.1c-8-2.5-16.5,2.1-19,10.1c-0.1,0.5-0.3,0.9-0.4,1.4
					l-0.6,2.7c-1.2,5.6-5.5,10-11.1,11.4l-2.7,0.6C34.2,63.1,29.1,71.3,31,79.5c0.1,0.5,0.2,0.9,0.4,1.3l0.9,2.6
					c1.8,5.5,0.3,11.5-3.9,15.4l-2,1.9c-6.1,5.7-6.5,15.3-0.7,21.5c0.3,0.3,0.7,0.7,1,1l2,1.8c4.3,3.8,6,9.8,4.3,15.3l-0.8,2.6
					c-2.4,8,2.1,16.5,10.1,19c0.4,0.1,0.9,0.3,1.4,0.3l2.7,0.6c5.6,1.2,10.1,5.5,11.4,11.1l0.6,2.7c1.9,8.2,10.1,13.3,18.3,11.4
					c0.5-0.1,0.9-0.2,1.3-0.4l2.6-0.9c5.4-1.8,11.4-0.3,15.4,3.9l1.9,2c2.9,3.1,6.9,4.8,11.1,4.8h0.2c4.3-0.1,8.3-1.9,11.2-5.1
					l1.8-2.1c3.8-4.3,9.8-5.9,15.3-4.3l2.6,0.8c8,2.4,16.5-2.1,19-10.1c0.1-0.4,0.3-0.9,0.3-1.4l0.6-2.7c1.2-5.6,5.5-10.1,11.1-11.4
					l2.7-0.6c8.2-1.9,13.3-10.1,11.4-18.2c-0.1-0.5-0.2-0.9-0.4-1.4l-0.9-2.6c-1.8-5.4-0.3-11.4,3.9-15.4l2-1.9
					c6.1-5.7,6.5-15.4,0.7-21.5C190.1,99.3,189.7,99,189.4,98.7"/>
				<path id="Tracé_33" fill="#3B1C68" d="M118.8,222c-1.9,0-3.4-1.6-3.3-3.4l0.4-32.2c0-1.9,1.5-3.4,3.4-3.4
					c1.9,0,3.4,1.5,3.4,3.4c0,0,0,0.1,0,0.1l-0.4,32.2C122.2,220.5,120.7,222,118.8,222"/>
				<path id="Tracé_34" fill="#3B1C68" d="M132.3,206.6c-9.1-0.1-16.3,5.2-16.3,12.2c0,1.9,1.5,3.4,3.3,3.4c0,0,0,0,0,0l25.6,0.3
					c1.9,0,3.4-1.5,3.4-3.3c0,0,0,0,0,0C148.4,212.2,141.4,206.7,132.3,206.6"/>
				<path id="Tracé_35" fill="#3B1C68" d="M99.3,222c1.9,0,3.4-1.6,3.3-3.4l-0.4-32.2c0-1.9-1.5-3.4-3.4-3.4
					c-1.9,0-3.4,1.5-3.4,3.4c0,0,0,0.1,0,0.1l0.4,32.2C95.9,220.5,97.4,222,99.3,222"/>
				<path id="Tracé_36" fill="#3B1C68" d="M85.8,206.6c9.1-0.1,16.3,5.2,16.3,12.2c0,1.9-1.5,3.4-3.3,3.4c0,0,0,0,0,0l-25.6,0.3
					c-1.9,0-3.4-1.5-3.4-3.3c0,0,0,0,0,0C69.7,212.2,76.8,206.7,85.8,206.6"/>
				<path id="Tracé_37" fill="#FFFFFF" d="M56,85c-3.4,15.4,3.6,30,15.6,32.7s24.4-7.7,27.8-23.1s-3.6-30-15.6-32.7
					C71.9,59.2,59.4,69.6,56,85"/>
				<path id="Tracé_38" fill="#171716" d="M56.5,84.8c-2.1,9.6,2.2,18.8,9.7,20.4s15.3-4.8,17.4-14.5S81.4,72,73.9,70.3
					S58.6,75.1,56.5,84.8"/>
				<path id="Tracé_39" fill="#FFFFFF" d="M73,79.1c0-2.5-2.1-4.6-4.6-4.6s-4.6,2.1-4.6,4.6c0,2.5,2.1,4.6,4.6,4.6c0,0,0,0,0,0
					C70.9,83.7,73,81.7,73,79.1"/>
				<path id="Tracé_40" fill="#FFFFFF" d="M91.5,91.1c-3.6,16.4,3.8,32,16.6,34.8s26-8.2,29.6-24.6s-3.8-32-16.6-34.8
					C108.4,63.7,95.1,74.7,91.5,91.1"/>
				<path id="Tracé_41" fill="#171716" d="M92.1,90.9c-2.3,10.3,2.4,20,10.4,21.8s16.3-5.1,18.5-15.4s-2.4-20-10.4-21.8
					S94.3,80.6,92.1,90.9"/>
				<path id="Tracé_42" fill="#FFFFFF" d="M109.6,84.9c0-2.7-2.2-4.9-4.9-4.9c-2.7,0-4.9,2.2-4.9,4.9s2.2,4.9,4.9,4.9c0,0,0,0,0,0
					C107.4,89.8,109.6,87.6,109.6,84.9"/>
				<path id="Tracé_43" fill="#FFFFFF" d="M95.5,129.9v8c0,5-4,9-9,9c-5,0-9-4-9-9c0,0,0,0,0,0v-4.7L95.5,129.9z"/>
				<path id="Tracé_44" fill="#FFFFFF" d="M86.5,148.6c-5.9,0-10.7-4.8-10.7-10.7v-4.7c0-0.8,0.6-1.5,1.3-1.6l18.1-3.4
					c0.9-0.2,1.8,0.4,1.9,1.3c0,0.1,0,0.2,0,0.3v8C97.2,143.8,92.4,148.6,86.5,148.6 M79.1,134.6v3.3c0,4.1,3.3,7.4,7.4,7.4
					c4.1,0,7.4-3.3,7.4-7.4v-6L79.1,134.6z"/>
				<path id="Tracé_45" fill="#3B1C68" d="M219.6,130.5l-28.7-23.3c-2.8-2.4-7-2-9.4,0.8c-2.4,2.8-2,7,0.8,9.4
					c0.1,0.1,0.1,0.1,0.2,0.2l19.5,15.8l-25.3,9.2c-3.5,1.2-5.4,4.9-4.2,8.4c1.2,3.5,4.9,5.4,8.4,4.2c0.1,0,0.2-0.1,0.4-0.1
					l36.4-13.2c3.5-1.3,5.3-5.1,4-8.5C221.3,132.3,220.6,131.3,219.6,130.5"/>
				<path id="Tracé_46" fill="#3B1C68" d="M44.3,103.9L15,85.8l11.9-28.9c1.4-3.4-0.2-7.3-3.6-8.7c-3.4-1.4-7.3,0.2-8.7,3.6
					l-14,34.1c-1.3,3-0.1,6.5,2.7,8.2l34.1,21.1c3.1,2,7.2,1,9.2-2.1S47.5,105.9,44.3,103.9C44.3,103.9,44.3,103.9,44.3,103.9"/>
				<path id="Tracé_47" fill="#171716" d="M48.8,4.2l-4.6,10.6l-5.4-2.4l-4.2-1.8L39.2,0c-7,0.1-12.6,5.8-12.5,12.8
					c0,3.1,1.2,6,3.2,8.3L17.9,48.4c-0.1,0.3-0.2,0.6-0.3,1c-0.3,1.7,0.7,3.4,2.3,4.1l0.8,0.3l1.9,0.8c1.6,0.7,3.5,0.2,4.6-1.1
					c0.2-0.3,0.4-0.5,0.5-0.8l11.9-27.3c7-0.1,12.6-5.9,12.4-12.9C52,9.4,50.8,6.4,48.8,4.2"/>
				<path id="Tracé_48" fill="#3B1C68" d="M12.2,54.4c0-4.8,3.9-8.7,8.7-8.7s8.7,3.9,8.7,8.7s-3.9,8.7-8.7,8.7S12.2,59.2,12.2,54.4
					L12.2,54.4"/>
			</g>
		</g>
	</g>
</g>
<path id="Tracé_413" fill="none" stroke="#000000" stroke-width="3" stroke-linecap="round" d="M111.8,79c0,0-16.7,7.4-15,18.4
	S86.7,88.2,94.1,79"/>
</svg>
